<svg height="37.9846" viewBox="0 0 149.84967 37.9846" width="149.84967" xmlns="http://www.w3.org/2000/svg"><g fill="#222" fill-rule="evenodd" transform="translate(0 -.093454)"><path d="m69.32 36.888h8.937v-35.652h-8.937z"/><path d="m100.44836 29.379628c5.67905 0 9.85138-4.865852 9.85138-10.328081 0-5.462701-4.19567-10.2823156-9.85138-10.2823156-5.679045 0-9.87448 4.8196146-9.87448 10.2823156 0 5.462229 4.195435 10.328081 9.87448 10.328081m.0696-29.28617385c10.70886 0 19.33203 8.21669895 19.33203 18.88920685 0 10.718275-8.6925 19.095392-19.42494 19.095392-10.732207 0-19.424469-8.26223-19.424469-18.957621 0-10.6727441 8.80853-19.02697785 19.517379-19.02697785m20.35988 26.01270485 8.20003-1.929025c.58897 4.283866 3.73751 5.831663 7.04449 5.831663 3.28482 0 4.48539-1.929026 4.48539-3.431764 0-1.211155-.70238-2.399899-3.10351-2.870772l-5.00622-.964631c-5.97996-1.143685-10.21566-4.867032-10.21566-10.586401 0-6.8182329 6.27421-11.61803064 13.36444-11.61803064 9.12875 0 12.88889 5.65213584 13.546 10.38469964l-8.04159 2.242784c-.43029-2.915831-2.24246-5.0239113-5.54968-5.0239113-2.85429 0-4.2133 1.8839663-4.2133 3.3192353 0 1.188743.56633 2.557014 2.69562 2.960653l5.20992.986806c6.81815 1.301037 10.5559 5.427787 10.5559 10.78834 0 5.831662-5.07412 11.438739-13.77234 11.438739-9.10611 0-13.99892-4.732564-15.19949-11.528385"/><path d="m9.618 36.888h-9.618l15.904-35.652h9.664z"/><path d="m43.448 1.214h-11.078l12.102 17.444-6.734 9.776-12.132-27.199h-9.665l15.951 35.653h10.315l7.535-11.302 7.446 11.302h10.428l-12.447-18.23 11.946-17.444h-10.93l-6.443 10.56z"/></g></svg>