<svg fill="none" height="32" viewBox="0 0 180 32" width="180" xmlns="http://www.w3.org/2000/svg"><g fill="#000"><path d="m18.1677 25.1183h-4.7139l-9.49681-11.4581v11.4581h-3.95699v-24.08604h3.95699v10.80434l9.15271-10.80434h4.714l-9.73768 11.73334z"/><path d="m27.0328 25.5656c-2.5233 0-4.6681-.8717-6.4344-2.6151-1.7663-1.7433-2.6495-3.8881-2.6495-6.4344 0-2.5462.8832-4.691 2.6495-6.4344 1.7663-1.74335 3.9111-2.61503 6.4344-2.61503 2.5462 0 4.691.87168 6.4344 2.61503 1.7663 1.7434 2.6495 3.8882 2.6495 6.4344 0 2.5463-.8832 4.6911-2.6495 6.4344-1.7434 1.7434-3.8882 2.6151-6.4344 2.6151zm-3.8194-5.1613c1.0323 1.0323 2.3054 1.5484 3.8194 1.5484s2.7871-.5161 3.8194-1.5484c1.0322-1.0323 1.5483-2.3283 1.5483-3.8882 0-1.5598-.5161-2.8559-1.5483-3.8881-1.0323-1.0323-2.3054-1.5484-3.8194-1.5484s-2.7871.5161-3.8194 1.5484c-1.0322 1.0322-1.5483 2.3283-1.5483 3.8881 0 1.5599.5161 2.8559 1.5483 3.8882z"/><path d="m49.2145 7.46667c2.3627 0 4.3814.88315 6.0559 2.64943 1.6746 1.7434 2.5119 3.8767 2.5119 6.4 0 2.5463-.8373 4.6911-2.5119 6.4344-1.6745 1.7434-3.6932 2.6151-6.0559 2.6151-2.615 0-4.6222-.9635-6.0215-2.8903v9.3247h-3.7161v-24.08602h3.7161v2.47742c1.3993-1.94982 3.4065-2.92473 6.0215-2.92473zm-4.4731 13.00643c1.0323 1.0323 2.3283 1.5484 3.8882 1.5484 1.5598 0 2.8559-.5161 3.8881-1.5484 1.0323-1.0552 1.5484-2.3742 1.5484-3.957s-.5161-2.8903-1.5484-3.9226c-1.0322-1.0551-2.3283-1.5827-3.8881-1.5827-1.5599 0-2.8559.5276-3.8882 1.5827-1.0323 1.0323-1.5484 2.3398-1.5484 3.9226s.5161 2.9018 1.5484 3.957z"/><path d="m70.8879 7.46667c2.3627 0 4.3814.88315 6.0559 2.64943 1.6746 1.7434 2.5119 3.8767 2.5119 6.4 0 2.5463-.8373 4.6911-2.5119 6.4344-1.6745 1.7434-3.6932 2.6151-6.0559 2.6151-2.615 0-4.6222-.9635-6.0215-2.8903v9.3247h-3.7161v-24.08602h3.7161v2.47742c1.3993-1.94982 3.4065-2.92473 6.0215-2.92473zm-4.4731 13.00643c1.0323 1.0323 2.3283 1.5484 3.8882 1.5484 1.5598 0 2.8559-.5161 3.8881-1.5484 1.0323-1.0552 1.5484-2.3742 1.5484-3.957s-.5161-2.8903-1.5484-3.9226c-1.0322-1.0551-2.3283-1.5827-3.8881-1.5827-1.5599 0-2.8559.5276-3.8882 1.5827-1.0323 1.0323-1.5484 2.3398-1.5484 3.9226s.5161 2.9018 1.5484 3.957z"/><path d="m85.7484 18.0989c.2753 1.3076.9061 2.3169 1.8925 3.028.9864.6882 2.1906 1.0322 3.6129 1.0322 1.9727 0 3.4523-.7111 4.4387-2.1333l3.0623 1.7893c-1.6974 2.5003-4.2093 3.7505-7.5354 3.7505-2.7986 0-5.0581-.8488-6.7785-2.5462-1.7205-1.7205-2.5807-3.8882-2.5807-6.5033 0-2.5691.8488-4.7139 2.5463-6.4344 1.6975-1.74335 3.8767-2.61503 6.5376-2.61503 2.5233 0 4.5878.88315 6.1935 2.64943 1.6287 1.7663 2.4431 3.9111 2.4431 6.4344 0 .39-.0459.9061-.1377 1.5484zm-.0344-3.0279h10.1161c-.2523-1.3993-.8373-2.4545-1.7548-3.1656-.8947-.7111-1.9498-1.0667-3.1656-1.0667-1.3764 0-2.5233.3785-3.4409 1.1355-.9175.757-1.5025 1.7892-1.7548 3.0968z"/><path d="m106.567 10.8043c.94-2.13333 2.706-3.2 5.299-3.2v4.0258c-1.423-.0917-2.661.2523-3.717 1.0323-1.055.757-1.582 2.0186-1.582 3.7849v8.671h-3.716v-17.20432h3.716z"/><path d="m123.626 4.16344c-2.706-.25233-4.06.88315-4.06 3.40645v.34409h4.06v3.57852h-4.06v13.6258h-3.716v-13.6258h-2.615v-3.57852h2.615v-.34409c0-2.36272.654-4.15197 1.961-5.36774 1.331-1.238709 3.269-1.777778 5.815-1.617205z"/><path d="m129.31 4.64516c-.458.45878-1.009.68817-1.651.68817s-1.204-.22939-1.686-.68817c-.459-.48172-.688-1.04373-.688-1.68602 0-.6423.229-1.19283.688-1.65161.459-.481725 1.021-.722585 1.686-.722585s1.227.24086 1.686.722585c.459.45878.688 1.00931.688 1.65161 0 .64229-.241 1.2043-.723 1.68602zm-3.509 20.47314v-17.20432h3.716v17.20432z"/><path d="m136.756 18.0989c.276 1.3076.907 2.3169 1.893 3.028.986.6882 2.191 1.0322 3.613 1.0322 1.973 0 3.452-.7111 4.439-2.1333l3.062 1.7893c-1.698 2.5003-4.209 3.7505-7.536 3.7505-2.798 0-5.058-.8488-6.778-2.5462-1.72-1.7205-2.581-3.8882-2.581-6.5033 0-2.5691.849-4.7139 2.547-6.4344 1.697-1.74335 3.876-2.61503 6.537-2.61503 2.523 0 4.588.88315 6.194 2.64943 1.628 1.7663 2.443 3.9111 2.443 6.4344 0 .39-.046.9061-.138 1.5484zm-.034-3.0279h10.116c-.252-1.3993-.837-2.4545-1.755-3.1656-.894-.7111-1.949-1.0667-3.165-1.0667-1.377 0-2.524.3785-3.441 1.1355-.918.757-1.503 1.7892-1.755 3.0968z"/><path d="m153.859 25.1183v-25.1183h3.716v25.1183z"/><path d="m175.515 1.03226h3.716v24.08604h-3.716v-2.4774c-1.399 1.9498-3.406 2.9247-6.021 2.9247-2.363 0-4.382-.8717-6.056-2.6151-1.675-1.7663-2.512-3.9111-2.512-6.4344 0-2.5462.837-4.691 2.512-6.4344 1.674-1.74335 3.693-2.61503 6.056-2.61503 2.615 0 4.622.96344 6.021 2.89033zm-9.324 19.44084c1.032 1.0323 2.328 1.5484 3.888 1.5484s2.856-.5161 3.888-1.5484c1.032-1.0552 1.548-2.3742 1.548-3.957s-.516-2.8903-1.548-3.9226c-1.032-1.0551-2.328-1.5827-3.888-1.5827s-2.856.5276-3.888 1.5827c-1.033 1.0323-1.549 2.3398-1.549 3.9226s.516 2.9018 1.549 3.957z"/></g></svg>